<svg xmlns="http://www.w3.org/2000/svg" width="13.167" height="15.542" viewBox="0 0 13.167 15.542">
  <path d="M30.438,982.136a2.632,2.632,0,0,0-2.632,2.632v1.88H25.87a1.128,1.128,0,0,0-1.125,1.042l-.637,8.273a1.128,1.128,0,0,0,1.125,1.214h10.41a1.127,1.127,0,0,0,1.124-1.214l-.635-8.273a1.128,1.128,0,0,0-1.126-1.042H33.071v-1.88a2.632,2.632,0,0,0-2.632-2.632Zm1.88,5.265h2.687a.376.376,0,0,1,.375.347l.637,8.273a.376.376,0,0,1-.375.4H25.234a.375.375,0,0,1-.375-.4l.636-8.273a.376.376,0,0,1,.375-.347h6.449Zm0-.752v-1.88a1.88,1.88,0,0,0-3.761,0v1.88Zm0,0" transform="translate(-23.854 -981.886)" fill="#000000" stroke="#ccc" stroke-width="0" fill-rule="evenodd"/>
</svg>
